<?xml version="1.0" encoding="UTF-8"?>
<svg width="14px" height="14px" viewBox="0 0 14 14" version="1.1" xmlns="http://www.w3.org/2000/svg" xmlns:xlink="http://www.w3.org/1999/xlink">
    <!-- Generator: Sketch 56 (81588) - https://sketch.com -->
    <title>Icon/Feature/Reduce</title>
    <desc>Created with Sketch.</desc>
    <g id="V2.06" stroke="none" stroke-width="1" fill="none" fill-rule="evenodd">
        <g id="Compress-压缩完成单个文件备份" transform="translate(-629.000000, -419.000000)" fill="#6B58C9">
            <g id="编组-4" transform="translate(203.000000, 219.000000)">
                <g id="编组-6" transform="translate(416.000000, 191.000000)">
                    <g id="编组-3" transform="translate(10.000000, 9.000000)">
                        <g id="Icon/Feature/Reduce">
                            <path d="M4.45800934,8.16717804 L3.20982179,8.16717804 C2.93367942,8.16717804 2.70982179,8.39103566 2.70982179,8.66717804 C2.70982179,8.79572583 2.7593317,8.91933515 2.84807122,9.01233962 L6.68497921,13.0336553 C6.87560669,13.2334446 7.19210205,13.2408717 7.39189137,13.0502443 C7.3987746,13.0436767 7.40546897,13.036914 7.41196632,13.0299644 L11.1716167,9.00864879 C11.3602058,8.80693422 11.3495655,8.49053059 11.1478509,8.3019415 C11.0552317,8.215349 10.9331736,8.16717804 10.8063802,8.16717804 L9.53316455,8.16717804 C9.25718402,8.1667634 9.03339349,7.9431583 9.03275009,7.66717821 L9.03164343,6.33213368 C9.03100003,6.05615359 8.8072095,5.83254849 8.53122897,5.83213386 L5.45607376,5.83213386 C5.17993138,5.83171956 4.95607376,6.05557719 4.95607376,6.33171956 C4.95607376,6.33185772 4.95607382,6.33199587 4.95648822,6.33213368 L4.95759488,7.66717821 C4.95823808,7.94332015 4.73456609,8.16736326 4.45842381,8.16759216 C4.45828565,8.16759227 4.4581475,8.16759233 4.45800934,8.16717804 Z" id="路径-7"></path>
                            <path d="M5.54166667,3.5 L8.45833333,3.5 C8.78049944,3.5 9.04166667,3.76116723 9.04166667,4.08333333 C9.04166667,4.40549944 8.78049944,4.66666667 8.45833333,4.66666667 L5.54166667,4.66666667 C5.21950056,4.66666667 4.95833333,4.40549944 4.95833333,4.08333333 C4.95833333,3.76116723 5.21950056,3.5 5.54166667,3.5 Z" id="矩形" opacity="0.800000012"></path>
                            <path d="M5.54166667,1.16666667 L8.45833333,1.16666667 C8.78049944,1.16666667 9.04166667,1.4278339 9.04166667,1.75 C9.04166667,2.0721661 8.78049944,2.33333333 8.45833333,2.33333333 L5.54166667,2.33333333 C5.21950056,2.33333333 4.95833333,2.0721661 4.95833333,1.75 C4.95833333,1.4278339 5.21950056,1.16666667 5.54166667,1.16666667 Z" id="矩形备份" opacity="0.400000006"></path>
                        </g>
                    </g>
                </g>
            </g>
        </g>
    </g>
</svg>